<svg width="26" height="26" viewBox="0 0 26 26" fill="none" xmlns="http://www.w3.org/2000/svg">
<rect width="26" height="26" rx="6" fill="#9CA3AF"/>
<g opacity="0.95" clip-path="url(#clip0_986_18472)">
<path fill-rule="evenodd" clip-rule="evenodd" d="M13.3989 4.22296C13.151 4.08453 12.8491 4.08453 12.6012 4.22296L8.51025 6.50766C8.25146 6.65218 8.09111 6.9254 8.09111 7.22182V11.3765L4.41914 13.4272C4.16035 13.5717 4 13.8449 4 14.1413V18.7808C4 19.0775 4.1606 19.3509 4.41969 19.4953L8.51062 21.7759C8.75821 21.9139 9.0596 21.9139 9.30719 21.7759L13 19.7173L16.6926 21.7759C16.9402 21.9139 17.2416 21.9139 17.4892 21.7759L21.5803 19.4953C21.8394 19.3509 22 19.0775 22 18.7808V14.1413C22 13.8449 21.8396 13.5717 21.5809 13.4272L17.9091 11.3766V7.22182C17.9091 6.9254 17.7487 6.65218 17.4899 6.50765L13.3989 4.22296ZM14.6721 14.1463L17.0949 12.7957L19.5116 14.1453L17.0909 15.5125L14.6721 14.1463ZM8.90515 12.7956L11.3279 14.1463L8.90892 15.5125L6.48838 14.1453L8.90515 12.7956ZM12.182 12.7476V10.0136L9.72707 8.62449V11.3766L12.182 12.7476ZM10.5795 7.22584L13.0001 5.87402L15.4207 7.22583L13 8.59299L10.5795 7.22584ZM13.818 18.3003V15.544L16.2729 16.9331V19.6689L13.818 18.3003ZM5.63596 18.3003V15.544L8.09093 16.9331V19.6689L5.63596 18.3003Z" fill="white"/>
</g>
<defs>
<clipPath id="clip0_986_18472">
<rect width="18" height="18" fill="white" transform="translate(4 4)"/>
</clipPath>
</defs>
</svg>
